<?xml version="1.0" ?><svg style="enable-background:new 0 0 128 128;" version="1.1" viewBox="0 0 128 128" xml:space="preserve" xmlns="http://www.w3.org/2000/svg" xmlns:xlink="http://www.w3.org/1999/xlink"><g id="Train"/><g id="Car"><path d="M105.2,57h-3.9l-3.2-6.3C96,46.7,91.5,44,86.5,44H59.6c-3.3,0-6.5,1.2-8.9,3.3l-11.2,9.8l-12.1,2.2c-5.2,0.9-9,5.5-9,10.8   v3.1c0,2.1,1.7,3.8,3.8,3.8h8.6c0.9,4,4.5,6.9,8.7,6.9c4.2,0,7.8-2.9,8.7-6.9h35.2c0.9,4,4.5,6.9,8.7,6.9c4.2,0,7.8-2.9,8.7-6.9   h7.6c0.6,0,1-0.4,1-1V61.4C109.5,59,107.6,57,105.2,57z M39.6,82c-3.5,0-6.5-2.6-6.9-6.1c0-0.3-0.1-0.6-0.1-0.9   c0-3.8,3.1-6.9,6.9-6.9c3.8,0,6.9,3.1,6.9,6.9c0,0.3,0,0.6-0.1,0.9C46,79.4,43,82,39.6,82z M92.2,82c-3.5,0-6.4-2.6-6.9-6.1   c0-0.3-0.1-0.6-0.1-0.9c0-3.8,3.1-6.9,6.9-6.9c3.1,0,5.7,2.1,6.6,4.9c0.2,0.7,0.3,1.3,0.3,2.1c0,0.3,0,0.6-0.1,0.9   C98.6,79.4,95.6,82,92.2,82z M107.5,75h-6.4c0-4.9-4-8.9-8.9-8.9c-4.9,0-8.9,4-8.9,8.9H48.5c0-4.9-4-8.9-8.9-8.9   c-4.9,0-8.9,4-8.9,8.9h-8.3c-1,0-1.8-0.8-1.8-1.8v-3.1c0-4.3,3.1-8.1,7.4-8.8L40.2,59c0.1,0,0.2-0.1,0.3-0.1l0,0L80.9,59   c0,0,0,0,0,0c3.2,0,6.4-0.8,9.2-2.2l5-2.5l-0.9-1.8l-5,2.5c-2.6,1.3-5.4,2-8.3,2l-6.4,0v-6h-2v6L42.8,57l9.3-8.2   c2-1.8,4.8-2.8,7.6-2.8h26.8c4.2,0,8.1,2.2,9.8,5.6l3.5,6.9c0.2,0.3,0.5,0.5,0.9,0.5h4.5c1.3,0,2.3,1,2.3,2.3V75z"/></g><g id="Taxi"/><g id="Truk"/><g id="Cruise"/><g id="Railway"/><g id="Trem"/><g id="Bus"/><g id="Yatch"/><g id="pLANE"/><g id="Bicycle"/><g id="Halte"/><g id="Bus_Stop"/><g id="Station"/><g id="Airport"/><g id="Layer_17"/></svg>